<?xml version="1.0" encoding="UTF-8"?><svg xmlns="http://www.w3.org/2000/svg" xmlns:xlink="http://www.w3.org/1999/xlink" viewBox="0 0 41.21 41.21"><defs><style>.e{fill:#ddc9b3;}.f{clip-path:url(#d);}.g{fill:none;}</style><clipPath id="d"><rect class="g" width="41.21" height="41.21"/></clipPath></defs><g id="a"/><g id="b"><g id="c"><g class="f"><path class="e" d="M30.85,.02H10.33C4.64,.02,0,4.66,0,10.34V30.9c0,5.65,4.64,10.29,10.33,10.29H30.88c5.69,0,10.33-4.64,10.33-10.33V10.34C41.17,4.66,36.53,.02,30.85,.02ZM13.72,33.35H7.84V16.36h5.88v16.99Zm-2.97-19.61c-1.67,0-3.01-1.34-3.01-3.01s1.34-3.01,3.01-3.01,3.01,1.34,3.01,3.01c-.03,1.67-1.37,3.01-3.01,3.01Zm22.61,19.61h-4.93v-8.23c0-1.99-.26-4.54-2.97-4.54s-3.24,2.16-3.24,4.41v8.37h-4.9V16.36h4.58v2.29h.13c.72-1.31,2.39-2.32,5-2.32,5.39,0,6.34,3.1,6.34,7.71v9.31Z"/></g></g></g></svg>