<?xml version="1.0" encoding="UTF-8"?><svg xmlns="http://www.w3.org/2000/svg" xmlns:xlink="http://www.w3.org/1999/xlink" viewBox="0 0 41.21 41.21"><defs><style>.e{fill:#ddc9b3;}.f{clip-path:url(#d);}.g{fill:none;}</style><clipPath id="d"><rect class="g" width="41.21" height="41.21"/></clipPath></defs><g id="a"/><g id="b"><g id="c"><g class="f"><g><path class="e" d="M30.26,7.32H10.94c-2,0-3.62,1.62-3.62,3.62V30.26c0,2,1.62,3.62,3.62,3.62H30.26c2,0,3.62-1.62,3.62-3.62V10.95c0-2-1.62-3.62-3.62-3.62Zm-9.66,21.73c-4.66,0-8.45-3.79-8.45-8.45s3.79-8.45,8.45-8.45,8.45,3.79,8.45,8.45-3.79,8.45-8.45,8.45Zm8.45-14.49c-1.33,0-2.41-1.08-2.41-2.41s1.08-2.41,2.41-2.41,2.41,1.08,2.41,2.41-1.08,2.41-2.41,2.41Z"/><path class="e" d="M20.6,14.57c-3.33,0-6.04,2.71-6.04,6.04s2.71,6.04,6.04,6.04,6.04-2.71,6.04-6.04-2.71-6.04-6.04-6.04Z"/><path class="e" d="M35.09,0H6.12C2.79,0,0,2.79,0,6.12v28.97c0,3.33,2.79,6.12,6.12,6.12h28.97c3.33,0,6.12-2.79,6.12-6.12V6.12c0-3.33-2.79-6.12-6.12-6.12Zm1.21,30.26c0,3.33-2.71,6.04-6.04,6.04H10.95c-3.33,0-6.04-2.71-6.04-6.04V10.95c0-3.33,2.71-6.04,6.04-6.04H30.26c3.33,0,6.04,2.71,6.04,6.04V30.26Z"/></g></g></g></g></svg>