<?xml version="1.0" encoding="UTF-8"?><svg xmlns="http://www.w3.org/2000/svg" viewBox="0 0 200.15 49.31"><defs><style>.d{fill:#ff1800;}</style></defs><g id="a"/><g id="b"><g id="c"><g><path class="d" d="M73.06,35.1c.23-.09,.48-.24,.76-.44,.27-.2,.48-.5,.63-.89,.15-.39,.22-.86,.22-1.42v-7.13h-7.07v7.13c0,.56,.07,1.03,.21,1.42,.14,.39,.35,.68,.62,.89,.27,.2,.52,.35,.75,.44,.23,.09,.5,.17,.83,.25v.53h-10.36v-.53c.25-.05,.47-.11,.65-.17,.18-.06,.4-.16,.64-.31,.24-.14,.44-.31,.59-.51,.15-.2,.28-.47,.38-.82,.11-.35,.16-.74,.16-1.19v-15.46c0-.45-.05-.84-.16-1.19-.11-.35-.24-.62-.38-.83-.15-.2-.35-.38-.58-.52-.24-.14-.45-.25-.64-.31-.19-.06-.41-.12-.66-.17v-.53h10.36v.53c-.32,.07-.6,.15-.83,.25-.23,.09-.48,.24-.75,.45-.27,.21-.48,.51-.62,.89-.14,.39-.21,.86-.21,1.42v7.13h7.07v-7.13c0-.56-.07-1.03-.22-1.42-.14-.39-.36-.68-.63-.89-.27-.21-.53-.36-.76-.45-.23-.09-.52-.17-.85-.25v-.53h10.36v.53c-.32,.07-.6,.15-.82,.25-.22,.09-.47,.24-.75,.45-.28,.21-.49,.51-.64,.89-.14,.39-.22,.86-.22,1.42v15.46c0,.45,.06,.84,.17,1.19,.11,.35,.24,.62,.4,.82,.15,.2,.35,.37,.59,.51,.24,.14,.45,.25,.63,.31,.18,.06,.39,.12,.64,.17v.53h-10.36v-.53c.33-.07,.61-.15,.85-.25h0Z"/><path class="d" d="M89.32,35.39c-1.34-.57-2.5-1.35-3.49-2.34-.99-1-1.77-2.23-2.34-3.69-.58-1.46-.87-3.05-.87-4.76s.29-3.28,.87-4.73c.58-1.45,1.36-2.67,2.34-3.66,.99-.99,2.15-1.76,3.49-2.32,1.34-.56,2.76-.84,4.26-.84s2.93,.28,4.26,.84c1.34,.56,2.5,1.34,3.49,2.32,.99,.99,1.78,2.21,2.36,3.66,.58,1.45,.87,3.03,.87,4.73s-.29,3.3-.87,4.76c-.58,1.46-1.37,2.69-2.36,3.69-.99,1-2.15,1.78-3.49,2.34-1.34,.57-2.76,.85-4.26,.85s-2.93-.28-4.26-.85Zm-.41-7.09c.19,1.19,.47,2.31,.84,3.36,.37,1.05,.89,1.9,1.55,2.54,.66,.64,1.42,.96,2.28,.96s1.65-.33,2.32-.98c.67-.65,1.19-1.51,1.57-2.57,.38-1.06,.66-2.19,.84-3.38s.27-2.41,.27-3.66c0-.98-.06-1.94-.17-2.9-.11-.95-.29-1.89-.54-2.81-.25-.92-.56-1.73-.93-2.42-.37-.69-.84-1.25-1.42-1.68-.58-.43-1.21-.64-1.91-.64s-1.33,.22-1.91,.65c-.58,.43-1.05,1-1.42,1.7-.37,.7-.69,1.52-.94,2.44-.25,.93-.43,1.87-.54,2.83-.11,.96-.17,1.93-.17,2.92,0,1.24,.09,2.46,.28,3.64h0Z"/><path class="d" d="M105.51,35.1c.23-.09,.48-.24,.76-.44,.27-.2,.48-.5,.63-.89,.15-.39,.22-.86,.22-1.42v-15.46c0-.56-.07-1.03-.22-1.42-.15-.39-.36-.68-.63-.89-.27-.21-.53-.36-.76-.45-.23-.09-.52-.17-.85-.25v-.53h11.69c2.22,0,4.04,.64,5.45,1.93,1.41,1.29,2.12,2.91,2.12,4.86,0,1.14-.23,2.15-.67,3.05-.45,.89-1.06,1.61-1.83,2.15-.77,.54-1.63,.95-2.59,1.23-.96,.27-1.98,.41-3.08,.41h-3.15v5.36c0,.56,.07,1.03,.22,1.42,.15,.39,.36,.68,.63,.89s.53,.35,.76,.44c.23,.09,.51,.17,.83,.25v.53h-10.39v-.53c.33-.07,.61-.15,.85-.25h0Zm9-9.25c.66,0,1.24-.17,1.73-.51,.5-.34,.89-.78,1.18-1.34,.29-.56,.5-1.16,.64-1.82,.14-.65,.21-1.33,.21-2.03s-.07-1.39-.2-2.02c-.14-.64-.35-1.23-.63-1.79-.28-.56-.67-1-1.17-1.33-.5-.33-1.08-.5-1.73-.5h-1.93v11.33h1.89Z"/><path class="d" d="M124.71,35.1c.23-.09,.48-.24,.76-.44,.27-.2,.48-.5,.63-.89,.15-.39,.22-.86,.22-1.42v-15.46c0-.56-.07-1.03-.22-1.42-.15-.39-.36-.68-.63-.89-.27-.21-.53-.36-.76-.45-.23-.09-.52-.17-.85-.25v-.53h11.69c2.22,0,4.04,.64,5.45,1.93,1.41,1.29,2.12,2.91,2.12,4.86,0,1.14-.23,2.15-.67,3.05-.45,.89-1.06,1.61-1.83,2.15-.77,.54-1.63,.95-2.59,1.23-.96,.27-1.98,.41-3.08,.41h-3.15v5.36c0,.56,.07,1.03,.22,1.42,.15,.39,.36,.68,.63,.89s.53,.35,.76,.44c.23,.09,.51,.17,.83,.25v.53h-10.39v-.53c.33-.07,.61-.15,.85-.25h0Zm9-9.25c.66,0,1.24-.17,1.73-.51,.5-.34,.89-.78,1.18-1.34,.29-.56,.5-1.16,.64-1.82,.14-.65,.21-1.33,.21-2.03s-.07-1.39-.2-2.02c-.14-.64-.35-1.23-.63-1.79-.28-.56-.67-1-1.17-1.33-.5-.33-1.08-.5-1.73-.5h-1.93v11.33h1.89Z"/><path class="d" d="M143.92,35.1c.23-.09,.48-.24,.76-.44,.27-.2,.48-.5,.63-.89,.15-.39,.22-.86,.22-1.42v-15.46c0-.56-.07-1.03-.22-1.42-.15-.39-.36-.68-.63-.89-.27-.21-.53-.36-.76-.45-.23-.09-.52-.17-.85-.25v-.53h17.34l.09,1.1,.29,4.86-.56,.03c-.84-3.2-2.81-4.8-5.92-4.8h-3.29v9.26h2.69c.45,0,.84-.06,1.18-.18,.35-.12,.61-.27,.81-.44,.19-.17,.37-.4,.51-.67,.14-.27,.24-.51,.3-.72,.06-.21,.12-.46,.17-.74h.53v6.63h-.53c-.05-.28-.11-.53-.17-.74s-.16-.45-.3-.72c-.14-.27-.31-.49-.51-.67-.2-.17-.47-.32-.81-.44-.34-.12-.74-.18-1.18-.18h-2.69v9.76h2.82c3.43,0,5.7-2,6.79-6l.59,.06-.59,6.09-.09,1.04h-17.47v-.53c.33-.07,.61-.15,.85-.25h0Z"/><path class="d" d="M162.84,35.1c.23-.09,.48-.24,.76-.44,.27-.2,.48-.5,.63-.89,.14-.39,.22-.86,.22-1.42v-15.46c0-.56-.07-1.03-.22-1.42-.15-.39-.36-.68-.63-.89-.27-.21-.53-.36-.76-.45-.23-.09-.52-.17-.85-.25v-.53h11.8c2.11,0,3.81,.52,5.11,1.57,1.3,1.04,1.95,2.46,1.95,4.26,0,1.41-.38,2.59-1.15,3.51-.77,.93-1.82,1.58-3.15,1.97l5,8.09c.38,.61,.78,1.11,1.2,1.51,.41,.4,.74,.65,.98,.76,.24,.11,.51,.22,.83,.32v.53h-7.1l-6.01-10.45h-1.56v6.92c0,.56,.07,1.03,.22,1.42,.14,.39,.36,.68,.64,.89,.28,.2,.53,.35,.76,.44,.23,.09,.51,.17,.84,.25v.53h-10.33v-.53c.33-.07,.61-.15,.85-.25h0Zm9.24-10.76c1.03,0,1.83-.44,2.39-1.32,.56-.88,.84-2.07,.84-3.55s-.29-2.69-.86-3.63c-.58-.94-1.41-1.41-2.51-1.41h-2.06v9.91h2.21Z"/><path class="d" d="M184.26,34.48l.09-5.97h.56c.74,2.19,1.73,3.84,2.98,4.94,1.25,1.1,2.59,1.66,4.02,1.66,1.02,0,1.87-.28,2.55-.85,.68-.57,1-1.37,.97-2.4-.03-.63-.19-1.21-.49-1.73-.3-.52-.78-1.01-1.46-1.49-.67-.47-1.24-.84-1.72-1.09-.47-.25-1.21-.62-2.2-1.1-.18-.09-.32-.16-.41-.2-.81-.39-1.51-.78-2.11-1.19-.6-.41-1.15-.88-1.64-1.42-.5-.54-.86-1.15-1.11-1.83-.24-.68-.35-1.42-.32-2.22,.05-1.89,.81-3.46,2.26-4.69,1.46-1.23,3.5-1.85,6.11-1.85,.87,0,1.76,.09,2.67,.27,.91,.18,1.65,.36,2.2,.54,.55,.18,1.23,.43,2.02,.75l-.06,5.88h-.53c-.71-2.14-1.58-3.72-2.61-4.74-1.03-1.02-2.26-1.53-3.69-1.53-1.13,0-2.03,.27-2.7,.8-.67,.53-1.01,1.21-1.03,2.04,0,.35,.06,.67,.17,.98,.12,.31,.3,.59,.56,.86,.26,.27,.52,.51,.79,.73,.27,.21,.63,.44,1.09,.69s.85,.45,1.19,.61c.33,.16,.78,.38,1.36,.65,.57,.27,1.02,.49,1.36,.65,1.88,.97,3.19,2.02,3.94,3.16s1.1,2.46,1.05,3.98c-.04,1.18-.28,2.22-.71,3.12-.43,.9-1.02,1.62-1.77,2.17-.74,.54-1.58,.95-2.51,1.22s-1.95,.41-3.04,.41c-2.48,0-5.09-.59-7.85-1.79h0Z"/><path class="d" d="M44.2,5.61s-2.66-.79-10.25-2.76C25.92,.75,22.22,0,22.22,0c0,0-3.7,.75-11.74,2.84C2.88,4.81,.22,5.61,.22,5.61c0,0-1.25,7.73,2.19,22.02,2.78,11.53,11.9,18.94,19.8,21.69,7.9-2.75,17.02-10.16,19.8-21.69,3.44-14.28,2.19-22.02,2.19-22.02h0Zm-8.82,6.73c-.37,.08-.69,.17-.94,.28-.25,.11-.54,.28-.86,.52-.32,.24-.56,.58-.73,1.03s-.25,.99-.25,1.63v17.75c0,.51,.06,.97,.19,1.37,.13,.4,.28,.71,.45,.94s.4,.42,.68,.59c.28,.16,.52,.28,.72,.35,.2,.07,.45,.14,.74,.19v.61h-11.9v-.61c.38-.08,.71-.17,.97-.28,.27-.11,.56-.27,.87-.51,.31-.24,.55-.57,.72-1.02,.17-.45,.25-.99,.25-1.63v-6.06h2.76l-6.81-8.35-6.72,8.35h2.64v6.06c0,.64,.08,1.19,.24,1.63,.16,.45,.4,.78,.71,1.02,.31,.24,.6,.4,.86,.51,.26,.11,.58,.2,.95,.28v.61H9.05v-.61c.29-.06,.54-.12,.75-.19,.21-.07,.45-.19,.73-.35,.28-.16,.5-.36,.68-.59s.32-.54,.44-.94c.12-.4,.18-.85,.18-1.37V15.79c0-.51-.06-.97-.18-1.37-.12-.4-.27-.71-.44-.95s-.4-.43-.67-.59c-.27-.16-.52-.28-.73-.35-.22-.07-.47-.14-.76-.19v-.61h11.9v.61l-2.77,3.45v.04l-2.64,3.28h13.52l-5.58-6.85v-.53h11.9v.61h0Z"/></g></g></g></svg>