<?xml version="1.0" encoding="UTF-8"?><svg xmlns="http://www.w3.org/2000/svg" viewBox="0 0 189.62 46.71"><defs><style>.d{fill:#c0ac96;}</style></defs><g id="a"/><g id="b"><g id="c"><g><path class="d" d="M69.21,33.25c.22-.09,.46-.23,.72-.42,.26-.19,.46-.47,.6-.84,.14-.37,.21-.82,.21-1.35v-6.76h-6.7v6.76c0,.53,.07,.98,.2,1.35,.13,.37,.33,.65,.59,.84,.26,.19,.5,.33,.71,.42,.21,.09,.48,.17,.78,.23v.51h-9.82v-.51c.24-.05,.44-.1,.62-.16,.17-.06,.37-.16,.6-.29,.23-.13,.41-.3,.56-.49,.14-.19,.26-.45,.36-.77,.1-.33,.15-.71,.15-1.13v-14.64c0-.43-.05-.8-.15-1.13-.1-.33-.22-.59-.36-.78-.14-.19-.33-.36-.55-.49-.22-.13-.42-.23-.6-.29-.18-.06-.38-.11-.63-.16v-.51h9.82v.51c-.31,.07-.57,.14-.78,.23-.21,.09-.45,.23-.71,.43-.26,.2-.46,.48-.59,.85-.13,.37-.2,.82-.2,1.35v6.76h6.7v-6.76c0-.53-.07-.98-.21-1.35-.14-.37-.34-.65-.6-.85-.26-.2-.5-.34-.72-.43-.22-.09-.49-.17-.8-.23v-.51h9.82v.51c-.31,.07-.57,.14-.78,.23-.21,.09-.45,.23-.71,.43-.26,.2-.46,.48-.6,.85-.14,.37-.21,.82-.21,1.35v14.64c0,.43,.05,.8,.16,1.13,.1,.33,.23,.59,.37,.77,.14,.19,.33,.35,.56,.49,.23,.13,.43,.23,.6,.29,.17,.06,.37,.11,.61,.16v.51h-9.82v-.51c.31-.07,.58-.14,.8-.23h0Z"/><path class="d" d="M84.62,33.52c-1.27-.54-2.37-1.28-3.3-2.22-.93-.94-1.67-2.11-2.22-3.5-.55-1.38-.82-2.89-.82-4.51s.27-3.1,.82-4.48c.55-1.37,1.28-2.53,2.22-3.46,.93-.93,2.03-1.67,3.3-2.2,1.27-.53,2.61-.8,4.04-.8s2.77,.27,4.04,.8c1.27,.53,2.37,1.27,3.31,2.2,.94,.93,1.68,2.09,2.23,3.46,.55,1.38,.83,2.87,.83,4.48s-.27,3.12-.83,4.51c-.55,1.38-1.29,2.55-2.23,3.5-.94,.94-2.04,1.69-3.31,2.22-1.27,.54-2.61,.8-4.04,.8s-2.77-.27-4.04-.8Zm-.39-6.71c.18,1.12,.44,2.19,.8,3.18,.35,1,.84,1.8,1.47,2.41,.63,.61,1.34,.91,2.16,.91s1.57-.31,2.19-.93c.63-.62,1.13-1.43,1.49-2.44,.36-1.01,.63-2.08,.8-3.2s.26-2.29,.26-3.47c0-.93-.05-1.84-.16-2.74-.1-.9-.28-1.79-.52-2.66-.24-.87-.53-1.64-.88-2.29-.35-.65-.8-1.19-1.34-1.59-.55-.4-1.15-.61-1.81-.61s-1.26,.21-1.81,.61c-.55,.41-.99,.95-1.35,1.61-.35,.66-.65,1.44-.89,2.31-.24,.88-.41,1.77-.52,2.68-.1,.91-.16,1.83-.16,2.76,0,1.18,.09,2.33,.26,3.45h0Z"/><path class="d" d="M99.95,33.25c.22-.09,.46-.23,.72-.42,.26-.19,.46-.47,.6-.84,.14-.37,.21-.82,.21-1.35v-14.64c0-.53-.07-.98-.21-1.35-.14-.37-.34-.65-.6-.85-.26-.2-.5-.34-.72-.43-.22-.09-.49-.17-.8-.23v-.51h11.08c2.1,0,3.83,.61,5.17,1.83,1.34,1.22,2.01,2.76,2.01,4.61,0,1.08-.21,2.04-.64,2.89-.43,.85-1,1.52-1.73,2.04-.73,.52-1.55,.9-2.45,1.16-.91,.26-1.88,.39-2.91,.39h-2.98v5.08c0,.53,.07,.98,.21,1.35,.14,.37,.34,.65,.6,.84s.5,.33,.72,.42c.22,.09,.48,.17,.79,.23v.51h-9.84v-.51c.31-.07,.58-.14,.8-.23h0Zm8.52-8.76c.62,0,1.17-.16,1.64-.48s.85-.74,1.12-1.27c.27-.53,.47-1.1,.61-1.72,.13-.62,.2-1.26,.2-1.92s-.06-1.32-.19-1.92c-.13-.6-.33-1.17-.6-1.69-.27-.53-.64-.94-1.11-1.26-.48-.31-1.02-.47-1.64-.47h-1.82v10.74h1.79Z"/><path class="d" d="M118.15,33.25c.22-.09,.46-.23,.72-.42,.26-.19,.46-.47,.6-.84,.14-.37,.21-.82,.21-1.35v-14.64c0-.53-.07-.98-.21-1.35-.14-.37-.34-.65-.6-.85-.26-.2-.5-.34-.72-.43-.22-.09-.49-.17-.8-.23v-.51h11.08c2.1,0,3.83,.61,5.17,1.83s2.01,2.76,2.01,4.61c0,1.08-.21,2.04-.64,2.89-.43,.85-1,1.52-1.73,2.04-.73,.52-1.55,.9-2.45,1.16-.91,.26-1.88,.39-2.91,.39h-2.98v5.08c0,.53,.07,.98,.21,1.35,.14,.37,.34,.65,.6,.84s.5,.33,.72,.42c.22,.09,.48,.17,.79,.23v.51h-9.84v-.51c.32-.07,.58-.14,.8-.23h0Zm8.52-8.76c.62,0,1.17-.16,1.64-.48s.85-.74,1.12-1.27c.27-.53,.47-1.1,.61-1.72,.13-.62,.2-1.26,.2-1.92s-.06-1.32-.19-1.92c-.13-.6-.33-1.17-.6-1.69-.27-.53-.64-.94-1.11-1.26-.47-.31-1.02-.47-1.64-.47h-1.82v10.74h1.79Z"/><path class="d" d="M136.35,33.25c.22-.09,.46-.23,.72-.42,.26-.19,.46-.47,.6-.84,.14-.37,.21-.82,.21-1.35v-14.64c0-.53-.07-.98-.21-1.35-.14-.37-.34-.65-.6-.85-.26-.2-.5-.34-.72-.43-.22-.09-.49-.17-.8-.23v-.51h16.43l.09,1.04,.27,4.6-.53,.03c-.79-3.03-2.66-4.54-5.61-4.54h-3.11v8.77h2.55c.42,0,.79-.06,1.12-.17,.33-.11,.58-.26,.77-.42,.18-.16,.35-.37,.48-.63,.13-.26,.23-.48,.29-.68,.06-.2,.11-.43,.16-.7h.5v6.28h-.5c-.05-.27-.1-.5-.16-.7s-.15-.43-.29-.68c-.13-.26-.29-.47-.48-.63-.19-.17-.44-.3-.77-.42-.32-.11-.7-.17-1.12-.17h-2.55v9.25h2.67c3.25,0,5.4-1.9,6.43-5.69l.56,.06-.56,5.77-.09,.99h-16.55v-.51c.31-.07,.58-.14,.8-.23h0Z"/><path class="d" d="M154.27,33.25c.22-.09,.46-.23,.72-.42,.26-.19,.46-.47,.6-.84,.14-.37,.21-.82,.21-1.35v-14.64c0-.53-.07-.98-.21-1.35-.14-.37-.34-.65-.6-.85-.26-.2-.5-.34-.72-.43-.22-.09-.49-.17-.8-.23v-.51h11.18c2,0,3.61,.5,4.84,1.48,1.23,.99,1.84,2.33,1.84,4.03,0,1.34-.36,2.45-1.09,3.33-.73,.88-1.72,1.5-2.98,1.87l4.73,7.67c.36,.58,.74,1.06,1.13,1.43,.39,.37,.7,.62,.93,.72,.23,.1,.49,.21,.78,.3v.51h-6.73l-5.7-9.9h-1.48v6.55c0,.53,.07,.98,.21,1.35,.14,.37,.34,.65,.6,.84,.26,.19,.5,.33,.72,.42,.21,.09,.48,.17,.8,.23v.51h-9.79v-.51c.31-.07,.58-.14,.8-.23h0Zm8.75-10.19c.98,0,1.73-.42,2.26-1.25,.53-.83,.8-1.96,.8-3.36s-.27-2.54-.82-3.44c-.54-.89-1.34-1.34-2.38-1.34h-1.95v9.39h2.09Z"/><path class="d" d="M174.56,32.66l.09-5.66h.53c.7,2.07,1.64,3.63,2.83,4.68,1.19,1.05,2.45,1.57,3.8,1.57,.97,0,1.77-.27,2.41-.81,.64-.54,.95-1.3,.92-2.27-.03-.6-.18-1.14-.47-1.64-.28-.49-.74-.96-1.38-1.41-.64-.45-1.18-.79-1.63-1.04-.45-.24-1.14-.59-2.08-1.04-.17-.09-.3-.15-.39-.19-.77-.37-1.43-.74-2-1.13-.57-.38-1.09-.83-1.56-1.35-.47-.51-.82-1.09-1.05-1.73-.23-.64-.33-1.34-.3-2.11,.05-1.79,.76-3.28,2.14-4.44,1.38-1.17,3.31-1.75,5.79-1.75,.82,0,1.67,.08,2.53,.25,.87,.17,1.56,.34,2.08,.51,.52,.17,1.16,.41,1.92,.71l-.06,5.57h-.5c-.67-2.02-1.5-3.52-2.48-4.49-.98-.97-2.14-1.45-3.49-1.45-1.07,0-1.92,.25-2.56,.76-.63,.51-.96,1.15-.98,1.93,0,.33,.05,.64,.16,.93,.11,.29,.29,.56,.53,.82,.24,.26,.49,.49,.75,.69,.25,.2,.6,.42,1.03,.65s.81,.43,1.13,.58c.31,.16,.74,.36,1.28,.61,.54,.26,.97,.46,1.29,.61,1.78,.92,3.02,1.91,3.74,2.99s1.04,2.33,1,3.77c-.04,1.12-.26,2.11-.68,2.96-.41,.85-.97,1.54-1.67,2.05s-1.5,.9-2.38,1.16-1.84,.38-2.88,.38c-2.34,0-4.82-.56-7.43-1.69h0Z"/><path class="d" d="M41.88,5.31s-2.52-.75-9.71-2.62C24.55,.71,21.05,0,21.05,0c0,0-3.51,.71-11.12,2.69C2.73,4.56,.21,5.31,.21,5.31c0,0-1.19,7.33,2.08,20.86,2.63,10.92,11.27,17.94,18.76,20.55,7.49-2.6,16.12-9.62,18.76-20.55,3.26-13.53,2.08-20.86,2.08-20.86h0Zm-8.36,6.38c-.35,.08-.65,.17-.89,.27-.24,.1-.52,.26-.82,.49-.3,.23-.53,.55-.69,.97s-.24,.93-.24,1.55V31.77c0,.49,.06,.92,.18,1.3,.12,.38,.26,.67,.43,.89s.38,.4,.64,.56c.26,.16,.49,.27,.68,.33,.19,.07,.42,.13,.7,.18v.58h-11.27v-.58c.36-.08,.67-.17,.92-.27,.25-.1,.53-.26,.82-.48,.3-.22,.53-.54,.68-.96,.16-.42,.24-.93,.24-1.55v-5.74h2.62l-6.45-7.91-6.36,7.91h2.5v5.74c0,.61,.08,1.12,.23,1.55,.15,.42,.38,.74,.68,.96,.3,.22,.57,.38,.82,.48,.25,.1,.55,.19,.9,.27v.58H8.57v-.58c.27-.05,.51-.11,.71-.18,.2-.07,.43-.18,.69-.33,.26-.16,.48-.34,.64-.56s.3-.51,.42-.89c.11-.38,.17-.81,.17-1.3V14.96c0-.49-.06-.92-.17-1.3-.11-.38-.25-.67-.42-.9s-.37-.41-.64-.56c-.26-.16-.49-.27-.69-.33-.2-.07-.44-.13-.72-.18v-.58h11.27v.58l-2.62,3.27v.03l-2.5,3.11h12.81l-5.29-6.49v-.51h11.27v.58h0Z"/></g></g></g></svg>